PathFileType	4	(X/Y/Z)	static.trc
DataRate	CameraRate	NumFrames	NumMarkers	Units	OrigDataRate	OrigDataStartFrame	OrigNumFrames
250.000000	250.000000	4	55	mm	250.000000	404	647
Frame#	Time	C7			RSH			LSH			MAN			T7			LARM			LELB			LFOREARM			LWR			RARM			RELB			RFOREARM			RWR			RASI			LASI			SACR			P1			P2			P3			LTHLP			LTHLD			LTHAP			LTHAD			LLEPI			LPAT			LMEPI			LTIAP			LTIAD			LTILAT			LLMAL			LMMAL			LHEEL			LMFS			LMFL			LP1MT			LTOE			LP5MT			RTHLP			RTHLD			RTHAP			RTHAD			RLEPI			RPAT			RMEPI			RTIAP			RTIAD			RTILAT			RLMAL			RMMAL			RHEEL			RMFS			RMFL			RP1MT			RTOE			RP5MT			
		X1	Y1	Z1	X2	Y2	Z2	X3	Y3	Z3	X4	Y4	Z4	X5	Y5	Z5	X6	Y6	Z6	X7	Y7	Z7	X8	Y8	Z8	X9	Y9	Z9	X10	Y10	Z10	X11	Y11	Z11	X12	Y12	Z12	X13	Y13	Z13	X14	Y14	Z14	X15	Y15	Z15	X16	Y16	Z16	X17	Y17	Z17	X18	Y18	Z18	X19	Y19	Z19	X20	Y20	Z20	X21	Y21	Z21	X22	Y22	Z22	X23	Y23	Z23	X24	Y24	Z24	X25	Y25	Z25	X26	Y26	Z26	X27	Y27	Z27	X28	Y28	Z28	X29	Y29	Z29	X30	Y30	Z30	X31	Y31	Z31	X32	Y32	Z32	X33	Y33	Z33	X34	Y34	Z34	X35	Y35	Z35	X36	Y36	Z36	X37	Y37	Z37	X38	Y38	Z38	X39	Y39	Z39	X40	Y40	Z40	X41	Y41	Z41	X42	Y42	Z42	X43	Y43	Z43	X44	Y44	Z44	X45	Y45	Z45	X46	Y46	Z46	X47	Y47	Z47	X48	Y48	Z48	X49	Y49	Z49	X50	Y50	Z50	X51	Y51	Z51	X52	Y52	Z52	X53	Y53	Z53	X54	Y54	Z54	X55	Y55	Z55	

405	1.616	-693.5798950195315	1569.039672851563	309.0598449707032	-649.5115966796877	1559.229736328126	472.7259521484377	-684.4904785156252	1553.743286132813	152.6113281250001	-536.7124023437502	1484.116943359375	305.8804626464845	-744.4071044921877	1373.593627929688	315.7393493652345	-703.6331176757815	1375.352172851563	36.27748489379884	-722.1289672851565	1250.505004882813	-20.41598701477051	-674.993347167969	1142.447631835938	-106.3380508422852	-653.3332519531252	1018.348388671875	-167.3468322753907	-668.6285400390627	1390.018676757813	584.4503173828127	-698.628601074219	1265.359008789063	649.0090332031252	-656.626159667969	1155.951904296875	733.7767333984377	-638.7038574218752	1034.02783203125	797.7475585937505	-530.5345458984377	1086.598266601563	398.7754516601565	-555.373474121094	1090.67919921875	183.0757141113282	-726.9470825195315	1134.582275390625	316.0688476562501	-747.7583618164065	1108.687377929688	265.012664794922	-738.7270507812502	1104.927001953125	371.060516357422	-772.3527221679692	1050.952758789063	318.2897338867189	-665.9427490234377	798.7275390625005	105.0089263916016	-662.7482910156252	684.6453857421877	111.3077011108399	-533.175476074219	783.1464843750005	171.0415039062501	-554.301696777344	674.1882324218752	177.7599029541016	-658.0222778320315	558.853698730469	121.6122055053712	-578.0544433593752	560.0571899414065	183.4179229736329	-659.1099853515627	541.9715576171877	247.420135498047	-643.0388183593752	381.6412353515626	187.6051483154297	-659.4244384765627	243.6898193359376	181.1066894531251	-694.2930297851565	320.7403564453126	107.8156661987305	-701.6951904296877	102.5274505615235	121.5990600585938	-680.5479125976565	113.0635604858399	214.4790191650392	-765.526306152344	61.2443771362305	166.0458526611329	-600.5081787109377	94.59891510009768	169.6711120605469	-628.6334228515627	69.58435058593753	107.0962142944337	-553.2169189453127	46.39398193359376	202.7791290283204	-497.8017272949221	58.47796630859378	164.3220825195313	-576.8129882812502	35.9031105041504	78.70161437988284	-630.9724731445315	825.6353149414067	512.7244262695315	-634.097106933594	711.8837890625002	507.7606506347659	-526.843200683594	782.768432617188	423.0332946777346	-547.6751708984377	686.4534912109377	419.6824035644534	-651.0505371093752	560.0071411132815	488.8186340332034	-582.7732543945315	550.841979980469	425.5554504394534	-683.2498779296877	544.016052246094	365.1947631835939	-657.2063598632815	344.0281677246095	419.0885009765627	-672.387390136719	217.9638671875001	413.8671569824221	-693.0014648437502	338.8798217773439	505.7667541503909	-695.1243286132815	103.1202011108399	481.7561950683596	-684.262390136719	112.7852249145508	387.8235473632815	-765.3548583984377	59.59036254882815	441.2182922363284	-592.4136962890627	97.9469833374024	432.1706848144534	-629.3176879882815	69.66711425781253	491.0361022949221	-554.2702636718752	49.07182312011722	388.8045959472659	-493.8503417968752	58.71334075927737	426.0809020996096	-569.8269653320315	40.65947723388673	515.932800292969	
406	1.62	-693.5480957031252	1569.076904296876	309.046600341797	-649.5000610351565	1559.218017578126	472.7010192871096	-684.4348754882815	1553.692749023438	152.5958099365235	-536.6945800781252	1484.221923828125	306.0488281250001	-744.378356933594	1373.650024414063	315.7483520507814	-703.610534667969	1375.403686523438	36.22274017333986	-722.0810546875002	1250.501586914063	-20.38509178161622	-674.9292602539065	1142.4453125	-106.4232940673829	-653.265319824219	1018.336730957032	-167.386703491211	-668.5948486328127	1390.013549804688	584.4151611328127	-698.5933227539065	1265.365966796875	648.9729003906252	-656.4919433593752	1155.950439453125	733.7654418945315	-638.6295166015627	1034.036254882813	797.7244262695317	-530.4654541015627	1086.5576171875	398.7708435058596	-555.3269653320315	1090.661987304688	183.1338806152344	-727.040222167969	1134.579711914063	316.0711669921876	-747.735046386719	1108.702026367188	265.0202941894532	-738.750915527344	1105.006713867188	370.9876403808595	-772.579711914063	1050.953979492188	318.6713256835939	-665.9304199218752	798.7373657226567	104.9952621459962	-662.6984863281252	684.6216430664065	111.3081970214844	-533.1376953125002	783.128540039063	170.9232177734376	-554.244079589844	674.1807250976565	177.8005828857422	-657.849792480469	558.7674560546877	121.3831939697266	-578.012634277344	560.0172119140627	183.4692077636719	-659.0388183593752	541.9526367187502	247.3916625976564	-642.962585449219	381.6232299804689	187.6290893554688	-659.3828735351565	243.7136230468751	181.0043334960938	-694.2730102539065	320.7312011718751	107.8306121826172	-701.6542968750002	102.5546493530274	121.5788650512696	-680.5710449218752	113.032585144043	214.4437255859376	-765.5162353515627	61.18939590454104	166.0093231201172	-600.5288085937502	94.5343933105469	169.6468505859376	-628.6336059570315	69.55965423583987	107.0697555541993	-553.319519042969	46.39714813232423	202.7697601318361	-497.8074035644534	58.5153617858887	164.3002166748047	-576.7041625976565	35.92943572998048	78.58329772949222	-630.9621582031252	825.6623535156255	512.7114868164065	-634.137878417969	711.867858886719	507.6345214843752	-526.8286743164065	782.793579101563	423.0458679199221	-547.7297363281252	686.386657714844	419.606628417969	-651.0477294921877	560.0078735351565	488.8718566894534	-582.770446777344	550.8357543945315	425.6155395507815	-683.1680908203127	544.0130004882815	365.1606445312501	-657.1446533203127	344.0245056152345	419.061218261719	-672.4151000976565	218.0622100830079	413.9470214843752	-692.9465332031252	338.8908691406251	505.8232116699221	-695.0272216796877	103.1353149414063	481.7859191894534	-683.9304199218752	112.8355560302735	387.4717102050784	-765.3446044921877	59.49452209472659	441.1913757324221	-592.3298339843752	97.91391754150396	432.2033996582034	-629.314636230469	69.65821075439456	491.0274963378909	-554.2552490234377	49.03582000732425	388.7137451171877	-493.8279724121096	58.78094863891604	426.1804809570315	-569.819274902344	40.67498016357423	515.9536743164065	
407	1.624	-688.7954101562502	1567.495361328126	307.4625549316407	-649.4487915039065	1559.234863281251	472.6717224121096	-684.4110107421877	1553.752319335938	152.5134735107422	-536.6386718750002	1484.214599609375	306.027069091797	-744.338562011719	1373.622680664063	315.7199707031251	-703.5445556640627	1375.39306640625	36.24565887451173	-721.9756469726565	1250.436767578125	-20.35724258422852	-674.8706054687502	1142.419921875	-106.4116592407227	-653.216003417969	1018.301452636719	-167.3897399902344	-668.5637207031252	1390.0615234375	584.3659667968752	-698.428161621094	1265.509033203125	648.9761352539065	-656.2950439453127	1155.947631835938	734.0323486328127	-638.5547485351565	1034.04443359375	797.7730102539067	-530.462585449219	1086.580932617188	398.7822265625002	-555.3330078125002	1090.672729492188	183.1611328125001	-726.9376220703127	1134.564697265625	316.0940246582032	-747.753112792969	1108.744140625	264.9426574707032	-738.7280883789065	1104.939453125	370.9719238281251	-772.3471679687505	1050.938232421875	318.290252685547	-665.849792480469	798.7162475585942	105.0112075805665	-662.6564941406252	684.602478027344	111.2892227172852	-533.0982666015627	783.1549682617192	171.0788574218751	-554.201110839844	674.2163696289065	177.8436889648438	-657.8565673828127	558.782165527344	121.5085754394532	-578.0047607421877	560.0037231445315	183.5401611328126	-659.0605468750002	541.9485473632815	247.3963317871095	-642.952819824219	381.6691894531251	187.7066955566407	-659.2778320312502	243.7118377685548	180.8836975097657	-694.2620239257815	320.7112121582032	107.8588333129883	-701.6461181640627	102.5881271362305	121.5782928466797	-680.5245361328127	113.0712051391602	214.5054931640626	-765.5424804687502	61.22699356079104	166.1537475585938	-600.5234375000002	94.52742004394534	169.6296081542969	-628.6364746093752	69.55867004394534	107.0614013671876	-553.2757568359377	46.35026931762697	202.7388610839845	-497.8154907226565	58.52123641967776	164.3337707519532	-576.7346191406252	35.88872146606447	78.63415527343753	-630.9234619140627	825.633911132813	512.6924438476565	-634.0742797851565	711.8717041015627	507.7427062988284	-526.7756347656252	782.7936401367192	423.0715942382815	-547.6577758789065	686.477478027344	419.7163085937502	-651.037292480469	560.0302734375002	488.7910461425784	-582.694519042969	550.832214355469	425.5208740234377	-683.1937255859377	544.0161132812502	365.1943664550782	-657.1856689453127	344.0048828125001	419.1176452636721	-672.3889160156252	218.0358734130861	413.8694152832034	-692.8953857421877	338.8855895996095	505.7760009765627	-694.9970703125002	103.2144927978516	481.8211059570315	-684.158386230469	112.7794036865235	387.6919555664065	-765.315856933594	59.40203094482425	441.089294433594	-592.3489379882815	97.92831420898443	432.2328186035159	-629.2732543945315	69.70505523681643	491.0203247070315	-554.2456054687502	49.07489395141604	388.7217102050784	-493.8193054199221	58.78791046142581	426.1790466308596	-569.8334960937502	40.66074371337892	515.9196777343752	
408	1.628	-688.5852050781252	1567.307373046876	307.3447570800782	-649.4458007812502	1559.231323242188	472.7105102539065	-684.3372802734377	1553.726318359376	152.4750976562501	-536.624450683594	1484.235595703125	305.9383850097657	-744.322448730469	1373.627563476563	315.6094970703126	-703.508239746094	1375.38037109375	36.2064552307129	-721.9336547851565	1250.464721679688	-20.41218185424805	-674.9500122070315	1142.457885742188	-106.2405319213868	-653.2218017578127	1018.342346191407	-167.3114471435547	-668.5257568359377	1390.064208984375	584.417419433594	-698.535827636719	1265.394409179688	648.9434814453127	-656.339782714844	1155.946655273438	733.8453369140627	-638.521667480469	1034.055541992188	797.7411499023442	-530.4287109375002	1086.552001953125	398.8192443847659	-555.263366699219	1090.644165039063	183.1117858886719	-726.8790283203127	1134.537231445313	316.0909423828126	-747.7114868164065	1108.706176757813	265.0066528320314	-738.7272949218752	1104.990966796875	371.0218200683595	-772.335815429688	1050.9384765625	318.2774963378907	-665.844909667969	798.6957397460942	105.0058364868165	-662.605651855469	684.616638183594	111.2877044677735	-533.1027832031252	783.1235961914067	171.072494506836	-554.0937500000002	674.1445312500002	177.6663665771485	-657.8240966796877	558.774841308594	121.4911117553712	-577.9202270507815	560.0229492187502	183.4322052001954	-658.9650878906252	541.9683837890627	247.392791748047	-642.9287109375002	381.6152954101564	187.7037048339844	-659.3281860351565	243.7211456298829	181.0328369140626	-694.187927246094	320.721649169922	107.7996978759766	-701.6956787109377	102.5434188842774	121.5833435058594	-680.5203247070315	113.0059356689454	214.4341278076173	-765.541687011719	61.25930786132815	166.0143737792969	-600.5345458984377	94.51301574707034	169.6077270507813	-628.6187133789065	69.55976104736331	107.082633972168	-553.2701416015627	46.37385559082033	202.7623748779298	-497.6821594238284	58.56134796142581	164.0528259277344	-576.7854003906252	35.85841751098634	78.68510437011722	-630.9141845703127	825.6440429687505	512.6942138671877	-634.0894775390627	711.890075683594	507.7458190917971	-526.6921386718752	782.7511596679692	422.8740539550784	-547.6572875976565	686.4207153320315	419.5973815917971	-651.018005371094	560.0467529296877	488.8166809082034	-582.6630859375002	550.8646240234377	425.6355285644534	-683.176452636719	543.9776000976565	365.177215576172	-657.0859375000002	344.0332336425782	419.0893859863284	-672.392761230469	218.0581207275392	413.9094848632815	-692.9434204101565	338.8804626464845	505.7580871582034	-695.082946777344	103.1354751586915	481.7160339355471	-684.083923339844	112.8342361450196	387.6526489257815	-765.3425903320315	59.51062011718753	441.243591308594	-592.4575805664065	97.93249511718756	432.1936340332034	-629.2373046875002	69.67913055419925	491.039733886719	-554.2808227539065	49.11235427856448	388.7991638183596	-493.8975524902346	58.70644378662112	426.1723937988284	-569.784851074219	40.70127868652345	515.9941406250002	
